<svg width="65" height="64" viewBox="0 0 65 64" fill="none" xmlns="http://www.w3.org/2000/svg">
<rect x="0.25" width="64" height="64" rx="32" fill="#CAF1FA"/>
<path d="M22.21 44H42.29C44.3433 44 45.6233 41.7733 44.5967 40L34.5567 22.6533C33.53 20.88 30.97 20.88 29.9433 22.6533L19.9033 40C18.8767 41.7733 20.1567 44 22.21 44ZM32.25 34.6667C31.5167 34.6667 30.9167 34.0667 30.9167 33.3333V30.6667C30.9167 29.9333 31.5167 29.3333 32.25 29.3333C32.9833 29.3333 33.5833 29.9333 33.5833 30.6667V33.3333C33.5833 34.0667 32.9833 34.6667 32.25 34.6667ZM33.5833 40H30.9167V37.3333H33.5833V40Z" fill="#023978"/>
</svg>
